<?xml version="1.0" standalone="no"?>
<!DOCTYPE svg PUBLIC "-//W3C//DTD SVG 20010904//EN"
 "http://www.w3.org/TR/2001/REC-SVG-20010904/DTD/svg10.dtd">
<svg version="1.0" xmlns="http://www.w3.org/2000/svg"
 width="32.000000pt" height="32.000000pt" viewBox="0 0 32.000000 32.000000"
 preserveAspectRatio="xMidYMid meet">

<g transform="translate(0.000000,32.000000) scale(0.100000,-0.100000)"
fill="#000000" stroke="none">
<path d="M0 160 l0 -160 160 0 160 0 0 160 0 160 -160 0 -160 0 0 -160z m151
64 c3 -32 6 -44 7 -26 2 39 22 43 23 5 1 -17 3 -21 6 -10 7 28 33 20 34 -10 2
-25 2 -25 6 -5 3 13 10 21 16 19 18 -6 20 -91 3 -131 -14 -34 -18 -36 -59 -36
-41 0 -45 3 -63 38 -10 20 -22 39 -26 40 -5 2 -8 10 -8 18 0 8 -4 14 -10 14
-5 0 -10 7 -10 16 0 25 33 12 41 -16 4 -15 7 11 8 63 1 66 4 88 14 85 7 -3 14
-30 18 -64z"/>
</g>
</svg>
