<?xml version="1.0" standalone="no"?>
<!DOCTYPE svg PUBLIC "-//W3C//DTD SVG 20010904//EN"
 "http://www.w3.org/TR/2001/REC-SVG-20010904/DTD/svg10.dtd">
<svg version="1.0" xmlns="http://www.w3.org/2000/svg"
 width="32.000000pt" height="32.000000pt" viewBox="0 0 32.000000 32.000000"
 preserveAspectRatio="xMidYMid meet">

<g transform="translate(0.000000,32.000000) scale(0.100000,-0.100000)"
fill="#000000" stroke="none">
<path d="M0 160 l0 -160 160 0 160 0 0 160 0 160 -160 0 -160 0 0 -160z m230
-2 c0 -5 -12 -8 -26 -8 -24 0 -25 -3 -19 -27 3 -15 10 -30 15 -33 5 -3 12 -18
15 -33 6 -21 4 -27 -8 -27 -9 0 -18 13 -22 30 -4 17 -10 30 -15 30 -4 0 -11
12 -14 26 l-7 27 -25 -23 -24 -23 0 97 0 98 65 -63 c36 -35 65 -67 65 -71z"/>
</g>
</svg>
